<?xml version="1.0" encoding="UTF-8" standalone="no"?>
<svg
   id="Ebene_1"
   viewBox="0 0 128 128"
   version="1.1"
   sodipodi:docname="ic_logo.svg"
   inkscape:version="1.3.2 (091e20ef0f, 2023-11-25, custom)"
   xmlns:inkscape="http://www.inkscape.org/namespaces/inkscape"
   xmlns:sodipodi="http://sodipodi.sourceforge.net/DTD/sodipodi-0.dtd"
   xmlns="http://www.w3.org/2000/svg"
   xmlns:svg="http://www.w3.org/2000/svg">
  <sodipodi:namedview
     id="namedview2"
     pagecolor="#ffffff"
     bordercolor="#666666"
     borderopacity="1.0"
     inkscape:showpageshadow="2"
     inkscape:pageopacity="0.0"
     inkscape:pagecheckerboard="0"
     inkscape:deskcolor="#d1d1d1"
     inkscape:zoom="8.15625"
     inkscape:cx="64"
     inkscape:cy="64"
     inkscape:window-width="2556"
     inkscape:window-height="1239"
     inkscape:window-x="0"
     inkscape:window-y="180"
     inkscape:window-maximized="1"
     inkscape:current-layer="Ebene_1" />
  <defs
     id="defs1">
    <style
       id="style1">.cls-1{fill:#f8f8f8;}</style>
  </defs>
  <path
     class="cls-1"
     d="m 53.326037,58.353734 c -0.576538,0.08007 -0.976912,0.240225 -1.329241,0.400374 l 1.905779,13.540639 c 0.328306,0.06406 0.76071,0.104097 1.281196,0.03203 2.818631,-0.400374 3.691446,-2.914721 3.050848,-7.519018 -0.664621,-4.700388 -2.025891,-6.854398 -4.900575,-6.454025 z"
     id="path1"
     style="stroke-width:0.800747" />
  <path
     class="cls-1"
     d="m 105.6709,40.817366 c 0.56853,-0.136127 0.92886,-0.608568 0.84879,-1.185106 l -3.65141,-25.976247 c -0.0801,-0.576538 -0.61658,-0.976911 -1.19311,-0.896837 l -29.027098,4.075805 1.113039,7.919392 c 0.200187,1.401308 -0.8568,2.794608 -2.258108,2.994795 -1.401308,0.200187 -2.794608,-0.8568 -2.994795,-2.258108 L 67.395169,17.571668 13.65701,25.130724 c -0.576538,0.08008 -0.976912,0.616576 -0.896837,1.193114 l 3.651408,25.976246 c 0.08007,0.576538 0.560523,0.936874 1.137061,0.904845 9.008409,-0.736688 17.160017,5.685306 18.441213,14.781797 1.281196,9.096491 -4.796477,17.464301 -13.668758,19.185908 -0.568531,0.136127 -0.928867,0.608568 -0.848792,1.185106 l 3.651408,25.97625 c 0.08008,0.57653 0.616575,0.97691 1.193113,0.89683 l 53.746167,-7.55104 -1.129054,-8.023494 c -0.200186,-1.449353 0.808755,-2.786601 2.258108,-2.994795 1.449353,-0.208194 2.794609,0.8568 2.994795,2.258108 l 1.129054,8.023491 29.027094,-4.07581 c 0.57654,-0.0801 0.97691,-0.61657 0.89684,-1.19311 l -3.65141,-25.976246 c -0.0801,-0.576539 -0.56052,-0.936875 -1.13706,-0.904845 -9.00841,0.736688 -17.152012,-5.637262 -18.433208,-14.733753 -1.281196,-9.09649 4.78847,-17.512346 13.660748,-19.24196 z M 57.75417,76.650813 C 56.344855,76.851 55.119711,76.859007 54.519151,76.78694 l 1.273188,9.040438 -7.943414,1.113039 -4.243962,-30.2122 c 2.001869,-1.297211 4.772455,-2.426265 9.112506,-3.04284 6.950487,-0.976912 12.227413,2.065928 13.340452,9.961298 1.000934,7.110637 -2.498332,12.179368 -8.295743,12.99613 z m 24.214602,6.518084 c 0.200187,1.401308 -0.8568,2.794608 -2.258108,2.994795 -1.401308,0.200187 -2.794608,-0.856799 -2.994795,-2.258107 L 74.81009,70.356938 c -0.208194,-1.497397 0.76071,-2.786601 2.258108,-2.994795 1.497398,-0.208194 2.786601,0.808755 2.994795,2.258108 z M 77.876953,54.045713 c 0.200187,1.449353 -0.808755,2.786601 -2.258108,2.994796 -1.449353,0.208194 -2.786601,-0.808755 -2.994795,-2.258108 L 70.718271,41.233755 c -0.200187,-1.449353 0.808755,-2.786601 2.258108,-2.994796 1.401308,-0.200187 2.794608,0.8568 2.994795,2.258108 z"
     id="path2"
     style="stroke-width:0.800747" />
</svg>
